<mxfile host="app.diagrams.net" modified="2022-05-03T14:27:45.659Z" agent="5.0 (Macintosh; Intel Mac OS X 10_15_7) AppleWebKit/537.36 (KHTML, like Gecko) Chrome/100.0.4896.127 Safari/537.36" etag="CKvGCO5n1BtiDFIBAuTX" version="17.4.6" type="github">
  <diagram name="Page-1" id="197159a0-c6a4-9194-75a8-e4174976684c">
    <mxGraphModel dx="2502" dy="1330" grid="1" gridSize="10" guides="1" tooltips="1" connect="1" arrows="1" fold="1" page="1" pageScale="1.5" pageWidth="1169" pageHeight="827" background="#ffffff" math="0" shadow="0">
      <root>
        <mxCell id="0" style=";html=1;" />
        <mxCell id="1" style=";html=1;" parent="0" />
        <mxCell id="1HYAg1R1sRlSyx_UH8kw-13" value="&lt;p style=&quot;line-height: 2&quot;&gt;MinIO&lt;br&gt;3&lt;/p&gt;" style="rounded=1;whiteSpace=wrap;html=1;fillColor=#dae8fc;strokeColor=#6c8ebf;gradientColor=none;" vertex="1" parent="1">
          <mxGeometry x="557" y="770" width="80" height="80" as="geometry" />
        </mxCell>
        <mxCell id="1HYAg1R1sRlSyx_UH8kw-43" style="edgeStyle=none;shape=connector;rounded=1;orthogonalLoop=1;jettySize=auto;html=1;exitX=0;exitY=0.5;exitDx=0;exitDy=0;entryX=0.5;entryY=1;entryDx=0;entryDy=0;dashed=1;labelBackgroundColor=default;fontFamily=Helvetica;fontSize=11;fontColor=default;endArrow=none;endFill=0;strokeColor=#A9C4EB;strokeWidth=3;fillColor=#dae8fc;" edge="1" parent="1" source="1HYAg1R1sRlSyx_UH8kw-14" target="1HYAg1R1sRlSyx_UH8kw-21">
          <mxGeometry relative="1" as="geometry" />
        </mxCell>
        <mxCell id="1HYAg1R1sRlSyx_UH8kw-44" style="edgeStyle=none;shape=connector;rounded=1;orthogonalLoop=1;jettySize=auto;html=1;exitX=0;exitY=0.5;exitDx=0;exitDy=0;entryX=0.5;entryY=0;entryDx=0;entryDy=0;dashed=1;labelBackgroundColor=default;fontFamily=Helvetica;fontSize=11;fontColor=default;endArrow=none;endFill=0;strokeColor=#A9C4EB;strokeWidth=3;fillColor=#dae8fc;" edge="1" parent="1" source="1HYAg1R1sRlSyx_UH8kw-14" target="1HYAg1R1sRlSyx_UH8kw-16">
          <mxGeometry relative="1" as="geometry" />
        </mxCell>
        <mxCell id="1HYAg1R1sRlSyx_UH8kw-45" style="edgeStyle=none;shape=connector;rounded=1;orthogonalLoop=1;jettySize=auto;html=1;exitX=0;exitY=0.5;exitDx=0;exitDy=0;entryX=0.5;entryY=1;entryDx=0;entryDy=0;dashed=1;labelBackgroundColor=default;fontFamily=Helvetica;fontSize=11;fontColor=default;endArrow=none;endFill=0;strokeColor=#A9C4EB;strokeWidth=3;fillColor=#dae8fc;" edge="1" parent="1" source="1HYAg1R1sRlSyx_UH8kw-14" target="1HYAg1R1sRlSyx_UH8kw-20">
          <mxGeometry relative="1" as="geometry" />
        </mxCell>
        <mxCell id="1HYAg1R1sRlSyx_UH8kw-46" style="edgeStyle=none;shape=connector;rounded=1;orthogonalLoop=1;jettySize=auto;html=1;exitX=0;exitY=0.5;exitDx=0;exitDy=0;dashed=1;labelBackgroundColor=default;fontFamily=Helvetica;fontSize=11;fontColor=default;endArrow=none;endFill=0;strokeColor=#A9C4EB;strokeWidth=3;fillColor=#dae8fc;" edge="1" parent="1" source="1HYAg1R1sRlSyx_UH8kw-14">
          <mxGeometry relative="1" as="geometry">
            <mxPoint x="637" y="810" as="targetPoint" />
          </mxGeometry>
        </mxCell>
        <mxCell id="1HYAg1R1sRlSyx_UH8kw-14" value="&lt;p style=&quot;line-height: 2&quot;&gt;MinIO&lt;br&gt;7&lt;/p&gt;" style="rounded=1;whiteSpace=wrap;html=1;fillColor=#dae8fc;strokeColor=#6c8ebf;gradientColor=none;" vertex="1" parent="1">
          <mxGeometry x="1117" y="770" width="80" height="80" as="geometry" />
        </mxCell>
        <mxCell id="1HYAg1R1sRlSyx_UH8kw-50" style="edgeStyle=none;shape=connector;rounded=1;orthogonalLoop=1;jettySize=auto;html=1;exitX=0.5;exitY=0;exitDx=0;exitDy=0;entryX=0.5;entryY=1;entryDx=0;entryDy=0;dashed=1;labelBackgroundColor=default;fontFamily=Helvetica;fontSize=11;fontColor=default;endArrow=none;endFill=0;strokeColor=#A9C4EB;strokeWidth=3;fillColor=#dae8fc;" edge="1" parent="1" source="1HYAg1R1sRlSyx_UH8kw-16" target="1HYAg1R1sRlSyx_UH8kw-20">
          <mxGeometry relative="1" as="geometry" />
        </mxCell>
        <mxCell id="1HYAg1R1sRlSyx_UH8kw-58" style="edgeStyle=none;shape=connector;rounded=1;orthogonalLoop=1;jettySize=auto;html=1;exitX=0.5;exitY=0;exitDx=0;exitDy=0;dashed=1;labelBackgroundColor=default;fontFamily=Helvetica;fontSize=20;fontColor=#7EA6E0;endArrow=none;endFill=0;strokeColor=#A9C4EB;strokeWidth=3;fillColor=#dae8fc;" edge="1" parent="1" source="1HYAg1R1sRlSyx_UH8kw-16">
          <mxGeometry relative="1" as="geometry">
            <mxPoint x="637" y="810" as="targetPoint" />
          </mxGeometry>
        </mxCell>
        <mxCell id="1HYAg1R1sRlSyx_UH8kw-16" value="&lt;p style=&quot;line-height: 2&quot;&gt;MinIO&lt;br&gt;5&lt;/p&gt;" style="rounded=1;whiteSpace=wrap;html=1;fillColor=#dae8fc;strokeColor=#6c8ebf;gradientColor=none;" vertex="1" parent="1">
          <mxGeometry x="837" y="1050" width="80" height="80" as="geometry" />
        </mxCell>
        <mxCell id="1HYAg1R1sRlSyx_UH8kw-30" style="edgeStyle=none;shape=connector;rounded=1;orthogonalLoop=1;jettySize=auto;html=1;exitX=0.5;exitY=1;exitDx=0;exitDy=0;entryX=0.5;entryY=1;entryDx=0;entryDy=0;dashed=1;labelBackgroundColor=default;fontFamily=Helvetica;fontSize=11;fontColor=default;endArrow=none;endFill=0;strokeColor=#A9C4EB;strokeWidth=3;fillColor=#dae8fc;" edge="1" parent="1" source="1HYAg1R1sRlSyx_UH8kw-17" target="1HYAg1R1sRlSyx_UH8kw-19">
          <mxGeometry relative="1" as="geometry" />
        </mxCell>
        <mxCell id="1HYAg1R1sRlSyx_UH8kw-31" style="edgeStyle=none;shape=connector;rounded=1;orthogonalLoop=1;jettySize=auto;html=1;exitX=0.5;exitY=1;exitDx=0;exitDy=0;entryX=0;entryY=0.5;entryDx=0;entryDy=0;dashed=1;labelBackgroundColor=default;fontFamily=Helvetica;fontSize=11;fontColor=default;endArrow=none;endFill=0;strokeColor=#A9C4EB;strokeWidth=3;fillColor=#dae8fc;" edge="1" parent="1" source="1HYAg1R1sRlSyx_UH8kw-17" target="1HYAg1R1sRlSyx_UH8kw-14">
          <mxGeometry relative="1" as="geometry" />
        </mxCell>
        <mxCell id="1HYAg1R1sRlSyx_UH8kw-33" style="edgeStyle=none;shape=connector;rounded=1;orthogonalLoop=1;jettySize=auto;html=1;exitX=0.5;exitY=1;exitDx=0;exitDy=0;entryX=0.5;entryY=1;entryDx=0;entryDy=0;dashed=1;labelBackgroundColor=default;fontFamily=Helvetica;fontSize=11;fontColor=default;endArrow=none;endFill=0;strokeColor=#A9C4EB;strokeWidth=3;fillColor=#dae8fc;" edge="1" parent="1" source="1HYAg1R1sRlSyx_UH8kw-17" target="1HYAg1R1sRlSyx_UH8kw-21">
          <mxGeometry relative="1" as="geometry" />
        </mxCell>
        <mxCell id="1HYAg1R1sRlSyx_UH8kw-34" style="edgeStyle=none;shape=connector;rounded=1;orthogonalLoop=1;jettySize=auto;html=1;exitX=0.5;exitY=1;exitDx=0;exitDy=0;entryX=0.5;entryY=0;entryDx=0;entryDy=0;dashed=1;labelBackgroundColor=default;fontFamily=Helvetica;fontSize=11;fontColor=default;endArrow=none;endFill=0;strokeColor=#A9C4EB;strokeWidth=3;fillColor=#dae8fc;" edge="1" parent="1" source="1HYAg1R1sRlSyx_UH8kw-17" target="1HYAg1R1sRlSyx_UH8kw-16">
          <mxGeometry relative="1" as="geometry" />
        </mxCell>
        <mxCell id="1HYAg1R1sRlSyx_UH8kw-35" style="edgeStyle=none;shape=connector;rounded=1;orthogonalLoop=1;jettySize=auto;html=1;exitX=0.5;exitY=1;exitDx=0;exitDy=0;entryX=0.5;entryY=1;entryDx=0;entryDy=0;dashed=1;labelBackgroundColor=default;fontFamily=Helvetica;fontSize=11;fontColor=default;endArrow=none;endFill=0;strokeColor=#A9C4EB;strokeWidth=3;fillColor=#dae8fc;" edge="1" parent="1" source="1HYAg1R1sRlSyx_UH8kw-17" target="1HYAg1R1sRlSyx_UH8kw-20">
          <mxGeometry relative="1" as="geometry" />
        </mxCell>
        <mxCell id="1HYAg1R1sRlSyx_UH8kw-36" style="edgeStyle=none;shape=connector;rounded=1;orthogonalLoop=1;jettySize=auto;html=1;exitX=0.5;exitY=1;exitDx=0;exitDy=0;entryX=1;entryY=0.5;entryDx=0;entryDy=0;dashed=1;labelBackgroundColor=default;fontFamily=Helvetica;fontSize=11;fontColor=default;endArrow=none;endFill=0;strokeColor=#A9C4EB;strokeWidth=3;fillColor=#dae8fc;" edge="1" parent="1" source="1HYAg1R1sRlSyx_UH8kw-17" target="1HYAg1R1sRlSyx_UH8kw-13">
          <mxGeometry relative="1" as="geometry" />
        </mxCell>
        <mxCell id="1HYAg1R1sRlSyx_UH8kw-17" value="&lt;p style=&quot;line-height: 2&quot;&gt;MinIO&lt;br&gt;1&lt;/p&gt;" style="rounded=1;whiteSpace=wrap;html=1;fillColor=#dae8fc;strokeColor=#6c8ebf;gradientColor=none;" vertex="1" parent="1">
          <mxGeometry x="837" y="490" width="80" height="80" as="geometry" />
        </mxCell>
        <mxCell id="1HYAg1R1sRlSyx_UH8kw-23" style="edgeStyle=none;rounded=1;orthogonalLoop=1;jettySize=auto;html=1;exitX=0.5;exitY=1;exitDx=0;exitDy=0;entryX=0.5;entryY=1;entryDx=0;entryDy=0;dashed=1;endArrow=none;endFill=0;strokeWidth=3;fillColor=#dae8fc;strokeColor=#A9C4EB;" edge="1" parent="1" source="1HYAg1R1sRlSyx_UH8kw-18" target="1HYAg1R1sRlSyx_UH8kw-17">
          <mxGeometry relative="1" as="geometry" />
        </mxCell>
        <mxCell id="1HYAg1R1sRlSyx_UH8kw-24" style="edgeStyle=none;rounded=1;orthogonalLoop=1;jettySize=auto;html=1;exitX=0.5;exitY=1;exitDx=0;exitDy=0;entryX=0.5;entryY=1;entryDx=0;entryDy=0;dashed=1;endArrow=none;endFill=0;strokeWidth=3;fillColor=#dae8fc;strokeColor=#A9C4EB;" edge="1" parent="1" source="1HYAg1R1sRlSyx_UH8kw-18" target="1HYAg1R1sRlSyx_UH8kw-19">
          <mxGeometry relative="1" as="geometry" />
        </mxCell>
        <mxCell id="1HYAg1R1sRlSyx_UH8kw-25" style="edgeStyle=none;shape=connector;rounded=1;orthogonalLoop=1;jettySize=auto;html=1;exitX=0.5;exitY=1;exitDx=0;exitDy=0;entryX=0;entryY=0.5;entryDx=0;entryDy=0;dashed=1;labelBackgroundColor=default;fontFamily=Helvetica;fontSize=11;fontColor=default;endArrow=none;endFill=0;strokeColor=#A9C4EB;strokeWidth=3;fillColor=#dae8fc;" edge="1" parent="1" source="1HYAg1R1sRlSyx_UH8kw-18" target="1HYAg1R1sRlSyx_UH8kw-14">
          <mxGeometry relative="1" as="geometry" />
        </mxCell>
        <mxCell id="1HYAg1R1sRlSyx_UH8kw-26" style="edgeStyle=none;shape=connector;rounded=1;orthogonalLoop=1;jettySize=auto;html=1;exitX=0.5;exitY=1;exitDx=0;exitDy=0;entryX=0.5;entryY=1;entryDx=0;entryDy=0;dashed=1;labelBackgroundColor=default;fontFamily=Helvetica;fontSize=11;fontColor=default;endArrow=none;endFill=0;strokeColor=#A9C4EB;strokeWidth=3;fillColor=#dae8fc;" edge="1" parent="1" source="1HYAg1R1sRlSyx_UH8kw-18" target="1HYAg1R1sRlSyx_UH8kw-21">
          <mxGeometry relative="1" as="geometry" />
        </mxCell>
        <mxCell id="1HYAg1R1sRlSyx_UH8kw-27" style="edgeStyle=none;shape=connector;rounded=1;orthogonalLoop=1;jettySize=auto;html=1;exitX=0.5;exitY=1;exitDx=0;exitDy=0;entryX=0.5;entryY=0;entryDx=0;entryDy=0;dashed=1;labelBackgroundColor=default;fontFamily=Helvetica;fontSize=11;fontColor=default;endArrow=none;endFill=0;strokeColor=#A9C4EB;strokeWidth=3;fillColor=#dae8fc;" edge="1" parent="1" source="1HYAg1R1sRlSyx_UH8kw-18" target="1HYAg1R1sRlSyx_UH8kw-16">
          <mxGeometry relative="1" as="geometry" />
        </mxCell>
        <mxCell id="1HYAg1R1sRlSyx_UH8kw-28" style="edgeStyle=none;shape=connector;rounded=1;orthogonalLoop=1;jettySize=auto;html=1;exitX=0.5;exitY=1;exitDx=0;exitDy=0;entryX=0.5;entryY=1;entryDx=0;entryDy=0;dashed=1;labelBackgroundColor=default;fontFamily=Helvetica;fontSize=11;fontColor=default;endArrow=none;endFill=0;strokeColor=#A9C4EB;strokeWidth=3;fillColor=#dae8fc;" edge="1" parent="1" source="1HYAg1R1sRlSyx_UH8kw-18" target="1HYAg1R1sRlSyx_UH8kw-20">
          <mxGeometry relative="1" as="geometry" />
        </mxCell>
        <mxCell id="1HYAg1R1sRlSyx_UH8kw-29" style="edgeStyle=none;shape=connector;rounded=1;orthogonalLoop=1;jettySize=auto;html=1;exitX=0.5;exitY=1;exitDx=0;exitDy=0;entryX=1;entryY=0.5;entryDx=0;entryDy=0;dashed=1;labelBackgroundColor=default;fontFamily=Helvetica;fontSize=11;fontColor=default;endArrow=none;endFill=0;strokeColor=#A9C4EB;strokeWidth=3;fillColor=#dae8fc;" edge="1" parent="1" source="1HYAg1R1sRlSyx_UH8kw-18" target="1HYAg1R1sRlSyx_UH8kw-13">
          <mxGeometry relative="1" as="geometry" />
        </mxCell>
        <mxCell id="1HYAg1R1sRlSyx_UH8kw-18" value="&lt;p style=&quot;line-height: 2&quot;&gt;MinIO&lt;br&gt;2&lt;/p&gt;" style="rounded=1;whiteSpace=wrap;html=1;fillColor=#dae8fc;strokeColor=#6c8ebf;gradientColor=none;rotation=-45;" vertex="1" parent="1">
          <mxGeometry x="637" y="570" width="80" height="80" as="geometry" />
        </mxCell>
        <mxCell id="1HYAg1R1sRlSyx_UH8kw-38" style="edgeStyle=none;shape=connector;rounded=1;orthogonalLoop=1;jettySize=auto;html=1;exitX=0.5;exitY=1;exitDx=0;exitDy=0;entryX=0;entryY=0.5;entryDx=0;entryDy=0;dashed=1;labelBackgroundColor=default;fontFamily=Helvetica;fontSize=11;fontColor=default;endArrow=none;endFill=0;strokeColor=#A9C4EB;strokeWidth=3;fillColor=#dae8fc;" edge="1" parent="1" source="1HYAg1R1sRlSyx_UH8kw-19" target="1HYAg1R1sRlSyx_UH8kw-14">
          <mxGeometry relative="1" as="geometry" />
        </mxCell>
        <mxCell id="1HYAg1R1sRlSyx_UH8kw-39" style="edgeStyle=none;shape=connector;rounded=1;orthogonalLoop=1;jettySize=auto;html=1;exitX=0.5;exitY=1;exitDx=0;exitDy=0;entryX=0.5;entryY=1;entryDx=0;entryDy=0;dashed=1;labelBackgroundColor=default;fontFamily=Helvetica;fontSize=11;fontColor=default;endArrow=none;endFill=0;strokeColor=#A9C4EB;strokeWidth=3;fillColor=#dae8fc;" edge="1" parent="1" source="1HYAg1R1sRlSyx_UH8kw-19" target="1HYAg1R1sRlSyx_UH8kw-21">
          <mxGeometry relative="1" as="geometry" />
        </mxCell>
        <mxCell id="1HYAg1R1sRlSyx_UH8kw-40" style="edgeStyle=none;shape=connector;rounded=1;orthogonalLoop=1;jettySize=auto;html=1;exitX=0.5;exitY=1;exitDx=0;exitDy=0;entryX=0.5;entryY=0;entryDx=0;entryDy=0;dashed=1;labelBackgroundColor=default;fontFamily=Helvetica;fontSize=11;fontColor=default;endArrow=none;endFill=0;strokeColor=#A9C4EB;strokeWidth=3;fillColor=#dae8fc;" edge="1" parent="1" source="1HYAg1R1sRlSyx_UH8kw-19" target="1HYAg1R1sRlSyx_UH8kw-16">
          <mxGeometry relative="1" as="geometry" />
        </mxCell>
        <mxCell id="1HYAg1R1sRlSyx_UH8kw-41" style="edgeStyle=none;shape=connector;rounded=1;orthogonalLoop=1;jettySize=auto;html=1;exitX=0.5;exitY=1;exitDx=0;exitDy=0;entryX=0.5;entryY=1;entryDx=0;entryDy=0;dashed=1;labelBackgroundColor=default;fontFamily=Helvetica;fontSize=11;fontColor=default;endArrow=none;endFill=0;strokeColor=#A9C4EB;strokeWidth=3;fillColor=#dae8fc;startArrow=none;" edge="1" parent="1" source="1HYAg1R1sRlSyx_UH8kw-53" target="1HYAg1R1sRlSyx_UH8kw-20">
          <mxGeometry relative="1" as="geometry" />
        </mxCell>
        <mxCell id="1HYAg1R1sRlSyx_UH8kw-42" style="edgeStyle=none;shape=connector;rounded=1;orthogonalLoop=1;jettySize=auto;html=1;exitX=0.5;exitY=1;exitDx=0;exitDy=0;entryX=1;entryY=0.5;entryDx=0;entryDy=0;dashed=1;labelBackgroundColor=default;fontFamily=Helvetica;fontSize=11;fontColor=default;endArrow=none;endFill=0;strokeColor=#A9C4EB;strokeWidth=3;fillColor=#dae8fc;" edge="1" parent="1" source="1HYAg1R1sRlSyx_UH8kw-19" target="1HYAg1R1sRlSyx_UH8kw-13">
          <mxGeometry relative="1" as="geometry" />
        </mxCell>
        <mxCell id="1HYAg1R1sRlSyx_UH8kw-19" value="&lt;p style=&quot;line-height: 2&quot;&gt;MinIO&lt;br&gt;n&lt;/p&gt;" style="rounded=1;whiteSpace=wrap;html=1;fillColor=#dae8fc;strokeColor=#6c8ebf;gradientColor=none;rotation=45;" vertex="1" parent="1">
          <mxGeometry x="1053" y="570" width="80" height="80" as="geometry" />
        </mxCell>
        <mxCell id="1HYAg1R1sRlSyx_UH8kw-52" style="edgeStyle=none;shape=connector;rounded=1;orthogonalLoop=1;jettySize=auto;html=1;exitX=0.5;exitY=1;exitDx=0;exitDy=0;dashed=1;labelBackgroundColor=default;fontFamily=Helvetica;fontSize=11;fontColor=default;endArrow=none;endFill=0;strokeColor=#A9C4EB;strokeWidth=3;fillColor=#dae8fc;" edge="1" parent="1" source="1HYAg1R1sRlSyx_UH8kw-20">
          <mxGeometry relative="1" as="geometry">
            <mxPoint x="637" y="810" as="targetPoint" />
          </mxGeometry>
        </mxCell>
        <mxCell id="1HYAg1R1sRlSyx_UH8kw-20" value="&lt;p style=&quot;line-height: 2&quot;&gt;MinIO&lt;br&gt;4&lt;/p&gt;" style="rounded=1;whiteSpace=wrap;html=1;fillColor=#dae8fc;strokeColor=#6c8ebf;gradientColor=none;rotation=-135;" vertex="1" parent="1">
          <mxGeometry x="637" y="980" width="80" height="80" as="geometry" />
        </mxCell>
        <mxCell id="1HYAg1R1sRlSyx_UH8kw-47" style="edgeStyle=none;shape=connector;rounded=1;orthogonalLoop=1;jettySize=auto;html=1;exitX=0.5;exitY=1;exitDx=0;exitDy=0;entryX=0.5;entryY=0;entryDx=0;entryDy=0;dashed=1;labelBackgroundColor=default;fontFamily=Helvetica;fontSize=11;fontColor=default;endArrow=none;endFill=0;strokeColor=#A9C4EB;strokeWidth=3;fillColor=#dae8fc;" edge="1" parent="1" source="1HYAg1R1sRlSyx_UH8kw-21" target="1HYAg1R1sRlSyx_UH8kw-16">
          <mxGeometry relative="1" as="geometry" />
        </mxCell>
        <mxCell id="1HYAg1R1sRlSyx_UH8kw-48" style="edgeStyle=none;shape=connector;rounded=1;orthogonalLoop=1;jettySize=auto;html=1;exitX=0.5;exitY=1;exitDx=0;exitDy=0;entryX=0.5;entryY=1;entryDx=0;entryDy=0;dashed=1;labelBackgroundColor=default;fontFamily=Helvetica;fontSize=11;fontColor=default;endArrow=none;endFill=0;strokeColor=#A9C4EB;strokeWidth=3;fillColor=#dae8fc;" edge="1" parent="1" source="1HYAg1R1sRlSyx_UH8kw-21" target="1HYAg1R1sRlSyx_UH8kw-20">
          <mxGeometry relative="1" as="geometry" />
        </mxCell>
        <mxCell id="1HYAg1R1sRlSyx_UH8kw-49" style="edgeStyle=none;shape=connector;rounded=1;orthogonalLoop=1;jettySize=auto;html=1;exitX=0.5;exitY=1;exitDx=0;exitDy=0;entryX=1;entryY=0.5;entryDx=0;entryDy=0;dashed=1;labelBackgroundColor=default;fontFamily=Helvetica;fontSize=11;fontColor=default;endArrow=none;endFill=0;strokeColor=#A9C4EB;strokeWidth=3;fillColor=#dae8fc;" edge="1" parent="1" source="1HYAg1R1sRlSyx_UH8kw-21" target="1HYAg1R1sRlSyx_UH8kw-13">
          <mxGeometry relative="1" as="geometry" />
        </mxCell>
        <mxCell id="1HYAg1R1sRlSyx_UH8kw-21" value="&lt;p style=&quot;line-height: 2&quot;&gt;MinIO&lt;br&gt;6&lt;/p&gt;" style="rounded=1;whiteSpace=wrap;html=1;fillColor=#dae8fc;strokeColor=#6c8ebf;gradientColor=none;rotation=135;" vertex="1" parent="1">
          <mxGeometry x="1047" y="980" width="80" height="80" as="geometry" />
        </mxCell>
        <mxCell id="1HYAg1R1sRlSyx_UH8kw-54" value="" style="edgeStyle=none;shape=connector;rounded=1;orthogonalLoop=1;jettySize=auto;html=1;exitX=0.5;exitY=1;exitDx=0;exitDy=0;entryX=0.5;entryY=1;entryDx=0;entryDy=0;dashed=1;labelBackgroundColor=default;fontFamily=Helvetica;fontSize=11;fontColor=default;endArrow=none;endFill=0;strokeColor=#A9C4EB;strokeWidth=3;fillColor=#dae8fc;" edge="1" parent="1" source="1HYAg1R1sRlSyx_UH8kw-19" target="1HYAg1R1sRlSyx_UH8kw-53">
          <mxGeometry relative="1" as="geometry">
            <mxPoint x="1062.3725830020308" y="614.6274169979696" as="sourcePoint" />
            <mxPoint x="675.6274169979697" y="995.3725830020303" as="targetPoint" />
          </mxGeometry>
        </mxCell>
        <mxCell id="1HYAg1R1sRlSyx_UH8kw-53" value="&lt;font style=&quot;font-size: 20px&quot;&gt;HTTP/PRC&lt;/font&gt;" style="text;html=1;strokeColor=none;fillColor=none;align=center;verticalAlign=middle;whiteSpace=wrap;rounded=1;fontFamily=Helvetica;fontSize=11;fontColor=default;" vertex="1" parent="1">
          <mxGeometry x="839" y="790" width="60" height="30" as="geometry" />
        </mxCell>
        <mxCell id="1HYAg1R1sRlSyx_UH8kw-56" value="&lt;font style=&quot;font-size: 20px&quot; color=&quot;#7ea6e0&quot;&gt;。。。&lt;/font&gt;" style="text;html=1;strokeColor=none;fillColor=none;align=center;verticalAlign=middle;whiteSpace=wrap;rounded=1;fontFamily=Helvetica;fontSize=11;fontColor=default;rotation=75;" vertex="1" parent="1">
          <mxGeometry x="1111" y="690" width="60" height="30" as="geometry" />
        </mxCell>
        <mxCell id="1HYAg1R1sRlSyx_UH8kw-64" style="edgeStyle=none;shape=flexArrow;rounded=1;orthogonalLoop=1;jettySize=auto;html=1;exitX=0.5;exitY=1;exitDx=0;exitDy=0;exitPerimeter=0;entryX=0.5;entryY=0;entryDx=0;entryDy=0;labelBackgroundColor=default;fontFamily=Helvetica;fontSize=20;fontColor=#7EA6E0;endArrow=block;endFill=0;strokeColor=none;strokeWidth=3;fillColor=#dae8fc;" edge="1" parent="1" source="1HYAg1R1sRlSyx_UH8kw-61" target="1HYAg1R1sRlSyx_UH8kw-62">
          <mxGeometry relative="1" as="geometry" />
        </mxCell>
        <mxCell id="1HYAg1R1sRlSyx_UH8kw-61" value="" style="outlineConnect=0;dashed=0;verticalLabelPosition=bottom;verticalAlign=top;align=center;html=1;shape=mxgraph.aws3.management_console;fillColor=#dae8fc;rounded=1;fontFamily=Helvetica;fontSize=20;strokeWidth=2;strokeColor=#6c8ebf;" vertex="1" parent="1">
          <mxGeometry x="837" y="120" width="80" height="80" as="geometry" />
        </mxCell>
        <mxCell id="1HYAg1R1sRlSyx_UH8kw-65" style="edgeStyle=none;shape=flexArrow;rounded=1;orthogonalLoop=1;jettySize=auto;html=1;labelBackgroundColor=default;fontFamily=Helvetica;fontSize=20;fontColor=#7EA6E0;endArrow=block;endFill=0;strokeColor=none;strokeWidth=3;fillColor=#dae8fc;" edge="1" parent="1" source="1HYAg1R1sRlSyx_UH8kw-62">
          <mxGeometry relative="1" as="geometry">
            <mxPoint x="877" y="469.9999999999998" as="targetPoint" />
          </mxGeometry>
        </mxCell>
        <mxCell id="1HYAg1R1sRlSyx_UH8kw-62" value="Nginx Load Balancer" style="rounded=1;whiteSpace=wrap;html=1;fontFamily=Helvetica;fontSize=20;strokeWidth=2;fillColor=#dae8fc;strokeColor=#6c8ebf;" vertex="1" parent="1">
          <mxGeometry x="590" y="330" width="570" height="60" as="geometry" />
        </mxCell>
        <mxCell id="1HYAg1R1sRlSyx_UH8kw-66" value="S3" style="text;html=1;strokeColor=none;fillColor=none;align=center;verticalAlign=middle;whiteSpace=wrap;rounded=1;fontFamily=Helvetica;fontSize=20;fontColor=#7EA6E0;" vertex="1" parent="1">
          <mxGeometry x="877" y="240" width="60" height="30" as="geometry" />
        </mxCell>
      </root>
    </mxGraphModel>
  </diagram>
</mxfile>
